<svg width="1600" height="900" viewBox="0 0 1600 900" fill="none" xmlns="http://www.w3.org/2000/svg">
  <rect width="1600" height="900" rx="36" fill="#F5F8FE"/>
  <rect x="68" y="62" width="1464" height="776" rx="32" fill="url(#paint0_linear)"/>
  <rect x="118" y="116" width="330" height="122" rx="28" fill="white" fill-opacity="0.72"/>
  <circle cx="1180" cy="208" r="148" fill="white" fill-opacity="0.2"/>
  <circle cx="1316" cy="716" r="188" fill="white" fill-opacity="0.18"/>
  <path d="M392 690C392 574.573 485.573 481 601 481H1007C1122.43 481 1216 574.573 1216 690V694H392V690Z" fill="#E8F0FF"/>
  <rect x="566" y="295" width="74" height="314" rx="24" fill="#7D9FE9"/>
  <rect x="972" y="295" width="74" height="314" rx="24" fill="#7D9FE9"/>
  <path d="M603 304C603 235.517 658.517 180 727 180H885C953.483 180 1009 235.517 1009 304V330H603V304Z" fill="#5B7ED8"/>
  <path d="M603 563C603 523.236 635.236 491 675 491H937C976.764 491 1009 523.236 1009 563V609H603V563Z" fill="#4B6DBF"/>
  <path d="M529 727H1087" stroke="#5A7DD6" stroke-width="18" stroke-linecap="round"/>
  <circle cx="808" cy="429" r="160" stroke="#A7BEF3" stroke-width="10" stroke-dasharray="18 18"/>
  <path d="M808 271V587" stroke="#A7BEF3" stroke-width="8" stroke-linecap="round"/>
  <path d="M650 429H966" stroke="#A7BEF3" stroke-width="8" stroke-linecap="round"/>
  <defs>
    <linearGradient id="paint0_linear" x1="172" y1="120" x2="1417" y2="838" gradientUnits="userSpaceOnUse">
      <stop stop-color="#ECF3FF"/>
      <stop offset="1" stop-color="#DCE9FF"/>
    </linearGradient>
  </defs>
</svg>
